<svg width="132" height="32" viewBox="0 0 132 32" fill="none" xmlns="http://www.w3.org/2000/svg">
<path d="M19.424 24.6079V19.2959C19.424 15.8079 19.488 15.4559 20.832 15.1359V14.0479C18.368 14.2079 15.264 14.2079 12.672 14.0479V15.1359L13.504 15.2639C14.688 15.4559 15.072 15.7439 15.072 17.5999V19.4879C15.072 22.3999 14.272 23.3279 12.48 23.3279C8.736 23.3279 5.344 18.1119 5.344 10.9759C5.344 5.95194 6.944 3.42394 10.048 3.42394C12.864 3.42394 14.656 5.37594 16.48 9.18394L16.992 10.2399L17.856 10.0479C17.728 7.90394 17.632 5.88795 17.728 3.80795C16.288 2.75195 13.888 1.95194 10.912 1.95194C4.544 1.95194 0 6.46395 0 13.0559C0 20.2239 4.768 24.7359 11.488 24.7359C14.048 24.7359 15.904 24.0639 17.472 22.9119C18.016 23.6159 18.304 24.1919 18.592 24.7359L19.424 24.6079Z" fill="black"/>
<path d="M29.0665 24.7359C33.8665 24.7359 37.9625 21.5039 37.9625 16.2879C37.9625 10.9119 34.3465 7.83994 29.7065 7.83994C24.9065 7.83994 20.8105 11.1039 20.8105 16.3199C20.8105 21.7279 24.4265 24.7359 29.0665 24.7359ZM30.3145 23.2959C27.7865 23.2959 25.8025 19.1999 25.8025 14.7839C25.8025 11.2959 26.7945 9.31194 28.5225 9.31194C31.0185 9.31194 33.0025 13.4719 33.0025 17.8239C33.0025 21.3439 32.0105 23.2959 30.3145 23.2959Z" fill="black"/>
<path d="M46.4165 24.7359C51.2165 24.7359 55.3125 21.5039 55.3125 16.2879C55.3125 10.9119 51.6965 7.83994 47.0565 7.83994C42.2565 7.83994 38.1605 11.1039 38.1605 16.3199C38.1605 21.7279 41.7765 24.7359 46.4165 24.7359ZM47.6645 23.2959C45.1365 23.2959 43.1525 19.1999 43.1525 14.7839C43.1525 11.2959 44.1445 9.31194 45.8725 9.31194C48.3685 9.31194 50.3525 13.4719 50.3525 17.8239C50.3525 21.3439 49.3605 23.2959 47.6645 23.2959Z" fill="black"/>
<path d="M73.7185 23.4239V22.2719L72.8225 22.2079C71.6705 22.1119 71.5745 21.7279 71.5745 18.3679V7.35995C71.5745 5.69594 71.6065 2.59194 71.7025 0.831945L71.4145 0.543945C69.4305 1.08794 67.6705 1.15195 64.6625 1.15195V2.30394L65.2385 2.36794C66.8385 2.55994 66.8385 3.29594 66.8385 8.28794V8.38394C66.0385 8.06395 65.1425 7.87194 64.1505 7.87194C59.8945 7.87194 55.5105 10.8799 55.5105 16.6719C55.5105 21.2479 58.2305 24.7359 62.3905 24.7359C64.4065 24.7359 65.9105 23.7759 66.9345 22.1759C67.0305 23.2639 67.2225 24.1279 67.3505 24.7359C69.3665 24.0639 71.5105 23.6159 73.7185 23.4239ZM60.3745 14.6879C60.3745 10.9119 61.8785 9.15195 63.7665 9.15195C65.5905 9.15195 66.8385 10.4959 66.8385 12.7039V19.9999C66.8385 20.4159 66.8385 20.7999 66.8705 21.1839C66.2945 21.7279 65.7185 21.9519 64.9505 21.9519C62.1665 21.9519 60.3745 19.3279 60.3745 14.6879Z" fill="black"/>
<path d="M97.2333 13.6959C98.3213 10.7519 99.1212 9.91994 100.145 9.59995L100.657 9.43995V8.28794C98.7373 8.44794 96.6893 8.44794 94.7373 8.28794V9.43995L95.3453 9.59995C96.4973 9.91994 96.7213 10.7839 95.8893 13.3759L93.6172 20.3199L90.8652 12.1919C90.2253 10.2719 90.2893 9.91994 91.3133 9.63194L91.9212 9.43995V8.28794C89.1693 8.44794 86.2253 8.44794 83.6012 8.28794V9.43995L84.1773 9.59995C84.8173 9.79194 85.1373 10.3999 85.9053 12.4159L83.2173 20.3199L80.2733 12.2239C79.6013 10.3679 79.6653 9.88795 80.5612 9.66395L81.3293 9.43995V8.28794C78.3213 8.44794 75.1533 8.44794 72.3372 8.28794V9.43995L72.9772 9.56794C73.8092 9.72795 74.1613 10.3679 75.0253 12.4159L79.7933 24.2559C80.8173 24.1919 81.9053 24.1919 82.9613 24.2559L86.5452 14.1439L90.3853 24.2559C91.3453 24.1919 92.3693 24.1919 93.3613 24.2559L97.2333 13.6959Z" fill="black"/>
<path d="M115.667 22.2399L115.283 21.7279C114.867 22.0479 114.483 22.2399 114.003 22.2399C113.299 22.2399 113.139 21.8879 113.139 20.7679V13.8559C113.139 9.88795 111.219 7.83994 107.507 7.83994C103.923 7.83994 100.019 10.3679 100.019 12.7679C100.019 14.2399 101.331 14.5919 102.803 14.6559L103.379 14.4319C103.091 11.0719 103.827 9.43995 105.395 9.43995C107.187 9.43995 108.339 11.6159 108.339 14.8799V15.4239L104.211 15.9039C100.627 16.3199 99.0267 17.9199 99.0267 20.1919C99.0267 22.8159 100.947 24.7359 103.891 24.7359C106.131 24.7359 107.539 23.8079 108.467 22.2719C108.467 23.9359 109.619 24.7359 111.155 24.7359C112.755 24.7359 114.355 23.9999 115.667 22.2399ZM106.259 22.2719C104.723 22.2719 103.475 21.0879 103.475 19.1999C103.475 17.7599 104.147 16.7039 106.803 16.7039H108.339V21.5359C107.827 22.0479 107.027 22.2719 106.259 22.2719Z" fill="black"/>
<path d="M123.246 23.8399L127.278 14.2399C128.878 10.4959 129.614 9.79194 130.574 9.56794L131.086 9.43995V8.28794C129.294 8.41595 127.278 8.41595 125.262 8.28794V9.43995L125.934 9.63194C126.926 9.95195 127.214 10.7199 126.062 13.7279L123.822 19.5519L120.846 12.4159C120.078 10.5919 120.046 9.91994 121.166 9.63194L121.902 9.43995V8.28794C118.83 8.44794 115.982 8.44794 113.006 8.28794V9.43995C114.318 9.66395 114.606 10.1119 115.694 12.5439L120.782 23.9039H122.158L122.094 24.0319C120.782 27.4239 118.446 27.8399 114.766 27.9359L114.542 28.4479C114.574 29.8879 115.054 31.4559 116.942 31.4559C118.926 31.4559 120.526 30.2719 123.246 23.8399Z" fill="black"/>
</svg>
